<?xml version="1.0" encoding="UTF-8"?>
<svg width="127px" height="15px" viewBox="0 0 127 15" version="1.1" xmlns="http://www.w3.org/2000/svg" xmlns:xlink="http://www.w3.org/1999/xlink">
    <title>NAUTILUS</title>
    <g id="Page-1" stroke="none" stroke-width="1" fill="none" fill-rule="evenodd">
        <g id="Login" transform="translate(-141.000000, -47.000000)" fill="#042029" fill-rule="nonzero">
            <g id="NAUTILUS" transform="translate(141.660000, 47.140000)">
                <path d="M9.32,0.26 L9.32,7.64 C9.32,8.2 9.34,8.8 9.38,9.46 C8.92,8.94 8.46,8.46 8.02,8 L0.9,0.18 L2.84217094e-14,0.18 L2.84217094e-14,13.86 L2.34,13.86 L2.34,6.16 C2.34,5.68 2.3,5.18 2.26,4.68 C2.64,5.12 3.06,5.56 3.4,5.92 L10.74,13.94 L11.66,13.94 L11.66,0.26 L9.32,0.26 Z" id="Path"></path>
                <path d="M25.56,0.18 L24.84,0.18 L18.42,13.82 L18.42,13.86 L20.9,13.86 L22.02,11.4 L28.38,11.4 L29.5,13.86 L31.96,13.86 L31.96,13.8 L25.56,0.18 Z M25.2,3.98 C25.52,4.86 25.8,5.58 26.12,6.3 L27.6,9.54 L22.8,9.54 L24.28,6.3 C24.6,5.56 24.88,4.86 25.2,3.98 Z" id="Shape"></path>
                <path d="M43.56,14.12 C46.7,14.12 49,12.3 49,9.04 L49,0.26 L46.64,0.26 L46.64,8.88 C46.64,10.96 45.4,11.98 43.56,11.98 C41.7,11.98 40.46,10.96 40.46,8.88 L40.46,0.26 L38.1,0.26 L38.1,9.04 C38.1,12.3 40.4,14.12 43.56,14.12 Z" id="Path"></path>
                <polygon id="Path" points="65.9 0.26 55.84 0.26 55.84 2.44 59.7 2.44 59.7 13.86 62.06 13.86 62.06 2.44 65.9 2.44"></polygon>
                <polygon id="Path" points="72.96 13.86 75.32 13.86 75.32 0.26 72.96 0.26"></polygon>
                <polygon id="Path" points="83.64 13.86 91.9 13.86 91.9 11.68 86 11.68 86 0.26 83.64 0.26"></polygon>
                <path d="M103.74,14.12 C106.88,14.12 109.18,12.3 109.18,9.04 L109.18,0.26 L106.82,0.26 L106.82,8.88 C106.82,10.96 105.58,11.98 103.74,11.98 C101.88,11.98 100.64,10.96 100.64,8.88 L100.64,0.26 L98.28,0.26 L98.28,9.04 C98.28,12.3 100.58,14.12 103.74,14.12 Z" id="Path"></path>
                <path d="M121.38,14.12 C124.08,14.12 126.22,12.62 126.22,10.08 C126.22,7.76 124.38,6.62 122.02,5.86 C120.62,5.38 119.24,4.86 119.24,3.62 C119.24,2.6 120.3,2.08 121.5,2.08 C122.62,2.08 123.62,2.4 124.78,3.14 L125.8,1.38 C124.3,0.38 122.96,0 121.38,0 C118.92,0 116.84,1.34 116.84,3.74 C116.84,5.9 118.62,7.14 120.9,7.88 C122.44,8.38 123.84,8.92 123.84,10.2 C123.84,11.4 122.66,12.02 121.3,12.02 C119.88,12.02 118.52,11.5 117.5,10.62 L116.4,12.46 C117.74,13.52 119.52,14.12 121.38,14.12 Z" id="Path"></path>
            </g>
        </g>
    </g>
</svg>