<?xml version="1.0" encoding="UTF-8"?>
<svg width="100px" height="100px" viewBox="0 0 100 100" version="1.1" xmlns="http://www.w3.org/2000/svg" xmlns:xlink="http://www.w3.org/1999/xlink">
    <title>Artboard</title>
    <g id="Artboard" stroke="none" stroke-width="1" fill="none" fill-rule="evenodd">
        <path d="M68.2279215,47.3882283 C68.1296527,43.6444099 66.6514927,42.7579336 66.6514927,42.7579336 C66.6514927,42.7579336 69.0160744,43.6444275 70.4936521,46.7973028 C71.9711243,50.0483608 74.9267371,48.8665097 77.9807612,50.3439115 C81.0346095,51.8213837 84.5813941,53.2995947 87.2415266,50.3439115 C88.2269771,49.2601903 89.2116888,48.570959 90,48.0781985 C90,47.3882459 89.9017311,46.698997 89.9017311,45.9108266 C89.7045038,44.0388294 89.4090059,42.1670081 88.81801,40.3940556 C88.2270141,41.3795062 87.3405378,42.3642179 85.9613715,43.152529 C82.9075232,45.0245262 82.8084785,47.8811647 80.4446005,46.7974787 C78.0800188,45.7137576 73.6467579,44.432897 73.6467579,44.432897 C75.0259594,43.2509052 79.8534991,44.1373991 81.9220023,43.1519661 C83.3994744,42.4620135 85.8623268,38.5216714 87.2415635,36.2559584 C86.2561129,34.2857962 85.0741915,32.413799 83.5966138,30.6401428 C83.3993865,32.0193443 82.9066612,33.595826 81.9219143,34.679512 C79.3606506,37.7333602 77.7842042,39.9009081 76.2079336,40.4918336 C74.6315048,41.0828295 75.1242125,38.4226267 76.2079336,37.04339 C77.2916548,35.6641533 79.5573326,33.3984403 79.2617819,31.1320236 C79.163513,30.0483025 79.3600507,28.3735502 79.6555504,26.9943135 C78.4735586,26.1078196 77.0942867,25.221361 75.7152259,24.5313908 C76.3062218,27.3880293 76.6017198,31.4273984 74.9270027,33.2010546 C72.9568405,35.1712169 71.8731545,37.0432141 71.380394,38.0285591 C71.2821252,38.324057 71.1831667,38.619555 70.9866254,38.8167823 C70.9866254,38.8167823 71.0848943,38.5212844 71.380394,38.0285591 C71.9713899,36.2556066 72.3658446,33.0043727 73.4496009,30.3442402 C74.1395535,28.5712877 73.2523736,25.4183948 72.3658798,23.0538131 C70.4938826,22.3638604 68.4255553,21.9700919 66.2580074,21.6746115 C70.2973765,25.9104867 68.3272143,29.5561401 67.8344362,31.1325866 C67.2434403,32.9055391 67.8344362,36.4521478 67.8344362,36.4521478 C65.1743038,32.4127786 66.1597367,31.1325866 66.5535053,27.5859779 C66.7507326,25.8130254 63.8933728,23.3501027 61.0367343,21.4781055 C57.4901256,21.5763743 53.5496252,22.0691014 49.3130463,23.251058 C49.3130463,23.251058 48.2293251,20.2953748 47.0473333,20 L46.9490645,20 C45.274365,20 24.5857262,30.6398261 22.2213204,31.1325866 C19.7583977,31.7235825 16.0145793,33.89106 11.2859436,36.2556418 C11.2859436,36.2556418 9.90674206,37.2410923 10.0050127,38.1276389 C10.1032815,38.7186348 10.6949653,39.3096307 12.7634861,39.5068405 C13.1572547,39.5068405 13.64998,39.6051093 14.1426876,39.6051093 C19.8566683,39.6051093 30.4966704,36.8466359 42.4170404,36.8466359 L42.5153092,36.8466359 C55.4208483,36.8466359 57.0956358,38.7186331 57.0956358,38.7186331 L56.9973669,38.7186331 C56.9973669,38.7186331 57.0956358,38.8169019 57.0956358,38.8169019 C57.0956358,38.8169019 51.0861044,42.0679599 47.7367054,45.7129096 L47.7367054,45.6146407 C47.0467528,46.402864 46.4557745,47.1910696 46.0620059,47.9792225 L46.1602748,47.9792225 C46.0620059,48.0774913 46.0620059,48.2747204 45.9630474,48.372991 C45.6682356,48.5709045 45.6682356,48.7681318 45.569965,48.9653591 C45.0772397,51.2310721 43.8952655,52.7091776 42.4170721,53.8912046 L42.5153409,53.8912046 C42.1215724,54.2849731 41.6288471,54.5811572 41.1361394,54.9749257 L40.938912,54.9749257 C36.8019056,57.8315642 30.8907151,59.7035614 28.1322417,68.5697314 C28.0339729,68.7669587 28.0339729,68.8652293 27.9350144,69.0624566 C28.4277397,69.6534525 37.6883642,79.8996684 53.7464444,79.8996684 C59.4604251,79.8996684 66.061058,78.6187375 73.4498261,75.072164 C83.0059662,70.5400343 88.4245721,61.8710742 89.7047642,52.9058596 C87.7353056,54.4822884 84.8777875,55.8615427 81.2330137,54.6788121 C74.5337074,52.3140738 68.3269662,51.1320468 68.2279215,47.3882283 Z" id="Path" fill="#042029" fill-rule="nonzero"></path>
    </g>
</svg>